<?xml version="1.0" standalone="no"?>
<!DOCTYPE svg PUBLIC "-//W3C//DTD SVG 20010904//EN"
 "http://www.w3.org/TR/2001/REC-SVG-20010904/DTD/svg10.dtd">
<svg version="1.0" xmlns="http://www.w3.org/2000/svg"
 width="260.000000pt" height="260.000000pt" viewBox="0 0 260.000000 260.000000"
 preserveAspectRatio="xMidYMid meet">
<metadata>
Created by potrace 1.11, written by Peter Selinger 2001-2013
</metadata>
<g transform="translate(0.000000,260.000000) scale(0.100000,-0.100000)"
fill="#000000" stroke="none">
<path d="M1305 2544 c-11 -1 -69 -8 -129 -14 -308 -34 -583 -150 -778 -330
l-68 -62 0 -455 c0 -526 4 -566 72 -748 55 -145 103 -228 217 -368 78 -98 266
-266 379 -341 116 -76 302 -176 327 -176 39 0 322 165 420 245 352 287 529
576 564 920 6 59 11 289 11 510 l0 402 -41 46 c-123 141 -365 269 -618 328
-66 15 -336 54 -336 48 0 -1 -9 -3 -20 -5z m56 -739 c23 -159 45 -294 49 -299
5 -5 38 6 80 28 38 20 70 34 70 30 0 -4 -16 -35 -35 -70 -19 -34 -32 -65 -28
-67 5 -3 24 -8 43 -12 50 -10 288 -64 334 -76 21 -6 36 -12 33 -15 -2 -3 -96
-22 -207 -44 -111 -22 -205 -41 -207 -44 -3 -3 11 -34 31 -70 20 -35 36 -69
36 -75 0 -6 -32 5 -71 25 -39 19 -73 33 -76 30 -3 -3 -18 -92 -33 -198 -35
-243 -37 -217 -5 62 14 118 25 222 25 232 0 9 -18 31 -40 48 l-41 32 2 -416
c1 -229 -1 -420 -5 -423 -10 -10 -13 13 -51 307 -20 157 -38 300 -41 317 l-5
33 -71 -36 c-93 -47 -103 -36 -49 53 36 60 39 69 23 75 -9 4 -88 21 -175 38
-183 34 -237 48 -237 59 0 4 93 29 207 54 114 26 209 49 211 52 2 2 -10 30
-27 61 -29 54 -38 84 -26 84 3 0 37 -16 75 -35 l70 -35 5 22 c3 13 23 154 45
313 22 160 41 295 41 300 1 6 4 -3 6 -20 2 -16 22 -160 44 -320z m-14 -1112
c-3 -10 -5 -2 -5 17 0 19 2 27 5 18 2 -10 2 -26 0 -35z m-10 -75 c-3 -7 -5 -2
-5 12 0 14 2 19 5 13 2 -7 2 -19 0 -25z"/>
<path d="M1276 1674 l-28 -255 27 -35 c14 -18 31 -34 37 -34 7 0 8 88 3 288
-4 158 -8 288 -9 289 -1 1 -14 -113 -30 -253z"/>
<path d="M1367 1365 l-28 -35 228 1 228 1 -175 33 c-96 19 -186 34 -200 34
-17 1 -34 -10 -53 -34z"/>
<path d="M1050 1285 c80 -13 157 -26 171 -29 20 -4 31 1 48 25 l22 29 -193 -1
-193 -1 145 -23z"/>
</g>
</svg>
